<svg width="315" height="51" viewBox="0 0 315 51" fill="none" xmlns="http://www.w3.org/2000/svg">
<path d="M21.8053 31.4662C21.5832 31.1969 21.37 31.0613 21.1608 31.0613C21.0844 31.0732 20.9972 31.092 20.893 31.1167C20.7889 31.1415 20.6868 31.19 20.5876 31.2632C19.8261 31.8156 18.9932 32.2453 18.0899 32.5522C17.1865 32.8601 16.2366 33.0125 15.2411 33.0125C13.9867 33.0125 12.8365 32.7799 11.7914 32.3126C10.7482 31.8463 9.84392 31.2088 9.0814 30.398C8.31789 29.5882 7.72691 28.6398 7.30251 27.5538C6.87713 26.4679 6.66394 25.3056 6.66394 24.0642C6.66394 22.8139 6.87713 21.6418 7.30251 20.5488C7.72691 19.4569 8.31789 18.5056 9.0814 17.6948C9.84392 16.885 10.7482 16.2445 11.7914 15.7713C12.8365 15.2991 13.9867 15.0624 15.2411 15.0624C16.2366 15.0624 17.1776 15.2159 18.0621 15.5228C18.9466 15.8307 19.7775 16.2593 20.55 16.8107C20.6501 16.8731 20.7483 16.9196 20.8464 16.9493C20.9446 16.98 21.0319 16.9959 21.1052 16.9959C21.3373 16.9959 21.5594 16.8543 21.7686 16.5722L23.5574 13.5349C23.6318 13.3874 23.6675 13.2459 23.6675 13.1102C23.6675 12.94 23.6189 12.7915 23.5197 12.6687C23.4226 12.5469 23.2996 12.442 23.1499 12.3559C21.9947 11.5837 20.7592 10.9907 19.4453 10.5799C18.1295 10.1681 16.7403 9.96313 15.2778 9.96313C13.9748 9.96313 12.7235 10.1314 11.5256 10.469C10.3268 10.8066 9.20435 11.2788 8.15824 11.8866C7.11511 12.4945 6.16518 13.228 5.31044 14.0863C4.45669 14.9456 3.72194 15.9 3.10716 16.9493C2.4904 17.9987 2.0194 19.1223 1.68722 20.3192C1.35505 21.5151 1.18945 22.7644 1.18945 24.0642C1.18945 25.367 1.35505 26.6154 1.68722 27.8122C2.0194 29.0081 2.4904 30.1258 3.10716 31.1623C3.72194 32.1998 4.45669 33.1452 5.31044 33.9975C6.16518 34.8509 7.11511 35.5835 8.15824 36.1972C9.20435 36.811 10.3268 37.2832 11.5256 37.6149C12.7235 37.9465 13.9748 38.1128 15.2778 38.1128C16.7532 38.1128 18.1563 37.901 19.4919 37.4773C20.8256 37.0536 22.07 36.4556 23.2262 35.6825C23.3591 35.5835 23.4791 35.4795 23.5852 35.3696C23.6883 35.2588 23.7418 35.1172 23.7418 34.9459C23.7418 34.8242 23.7051 34.6875 23.6318 34.54L21.8053 31.4662Z" fill="white"/>
<path d="M49.3184 10.3669H44.2286C44.0551 10.4046 43.9222 10.4442 43.8231 10.4867C43.7229 10.5293 43.6069 10.6867 43.4721 10.957L37.8855 21.5051L35.1736 26.4024V36.8416C35.1736 37.4188 35.4324 37.7068 35.95 37.7068H39.711C40.2643 37.7068 40.539 37.4188 40.539 36.8416V26.3658C42.0531 23.8503 43.5405 21.313 45.0021 18.7529C46.4666 16.1939 47.9401 13.6566 49.4275 11.1401C49.5871 10.9441 49.6684 10.7906 49.6684 10.6798C49.6684 10.4709 49.5504 10.3669 49.3184 10.3669Z" fill="white"/>
<path d="M32.2982 11.0302C32.2119 10.8708 32.1415 10.7481 32.086 10.6619C32.0294 10.5768 31.9759 10.5144 31.9194 10.4768C31.8648 10.4402 31.8063 10.4194 31.7439 10.4135C31.6834 10.4075 31.6031 10.3917 31.5049 10.3679H26.4518C26.2188 10.3679 26.1018 10.459 26.1018 10.6431C26.1018 10.7055 26.1216 10.7946 26.1573 10.9104C26.194 11.0282 26.2436 11.1163 26.3041 11.1767L33.615 23.7255L36.4033 18.7767L32.2982 11.0302Z" fill="white"/>
<path d="M73.638 25.9064C73.3455 25.3531 72.9954 24.8393 72.5889 24.3591C72.1843 23.881 71.7302 23.4563 71.2245 23.09C71.8531 22.4396 72.345 21.6852 72.7009 20.8249C73.0579 19.9666 73.2364 19.039 73.2364 18.0441C73.2364 16.9641 73.0351 15.9583 72.6365 15.0257C72.2379 14.0922 71.6905 13.2834 70.9974 12.5954C70.3043 11.9073 69.4843 11.3648 68.5472 10.9669C67.6072 10.5679 66.6028 10.3669 65.5348 10.3669H54.0018C53.4495 10.3669 53.1719 10.655 53.1719 11.2322V36.9159C53.1719 37.1851 53.2482 37.3841 53.4039 37.5128C53.5566 37.6425 53.7559 37.7078 54.0028 37.7078H66.69C67.7837 37.7078 68.81 37.49 69.7699 37.0525C70.7267 36.6189 71.5606 36.0249 72.2676 35.2785C72.9756 34.529 73.5329 33.6638 73.9444 32.6808C74.3579 31.6987 74.5641 30.6612 74.5641 29.5693C74.5641 28.9199 74.4818 28.2834 74.3192 27.6646C74.1576 27.0449 73.9305 26.4579 73.638 25.9064ZM58.5016 14.8416H64.5442C65.0371 14.8416 65.4892 14.9247 65.9017 15.0901C66.3142 15.2554 66.6692 15.4851 66.9637 15.7801C67.2582 16.0751 67.4912 16.4245 67.6568 16.8304C67.8234 17.2343 67.9067 17.6699 67.9067 18.1362C67.9067 18.6144 67.8204 19.0608 67.6479 19.4727C67.4753 19.8845 67.2384 20.2389 66.9369 20.5398C66.6325 20.8408 66.2736 21.0774 65.8541 21.2487C65.4357 21.4189 64.9795 21.5051 64.4867 21.5051H58.5016V14.8416ZM68.8834 30.7206C68.7366 31.1315 68.5294 31.5037 68.2646 31.8344C67.9989 32.166 67.6895 32.4412 67.3326 32.663C66.9736 32.8837 66.5869 33.0243 66.1684 33.0867C65.9215 33.1342 65.6756 33.1698 65.4297 33.1876C65.1838 33.2065 64.931 33.2164 64.6712 33.2164H58.5016V25.7411H64.6712C64.931 25.7411 65.1858 25.755 65.4377 25.7867C65.6895 25.8173 65.9404 25.852 66.1853 25.8866C66.6057 25.9609 66.9934 26.1054 67.3504 26.3212C67.7064 26.5351 68.0158 26.8024 68.2736 27.1201C68.5324 27.4409 68.7366 27.8002 68.8834 28.1972C69.0301 28.5962 69.1055 29.006 69.1055 29.4218C69.1055 29.8762 69.0301 30.3098 68.8834 30.7206Z" fill="white"/>
<path d="M97.7231 32.662H84.1326V25.9797H94.2735C94.5461 25.9797 94.7425 25.8936 94.8644 25.7223C94.9884 25.5501 95.0499 25.354 95.0499 25.1343V21.8001C95.0499 21.4942 94.9755 21.2754 94.8287 21.1467C94.682 21.017 94.4827 20.9665 94.2378 20.9903H84.1326V15.4108H97.2442C97.5506 15.4108 97.7826 15.3257 97.9354 15.1534C98.089 14.9822 98.1644 14.7832 98.1644 14.5624V11.3104C98.1644 11.0381 98.098 10.8154 97.9631 10.6352C97.8263 10.456 97.6002 10.3669 97.2809 10.3669H79.504C78.9636 10.3669 78.6938 10.662 78.6938 11.251V36.9337C78.6938 37.2039 78.7732 37.4 78.9328 37.5227C79.0925 37.6455 79.2819 37.7078 79.504 37.7078H97.7598C98.3012 37.7078 98.57 37.4485 98.57 36.9307V33.5678C98.57 33.2599 98.5174 33.0322 98.4044 32.8847C98.2953 32.7362 98.0682 32.662 97.7231 32.662Z" fill="white"/>
<path d="M124.167 36.7674C124.106 36.6446 124.063 36.5228 124.04 36.4001L119.244 26.9548C119.945 26.5865 120.584 26.1351 121.162 25.6025C121.739 25.0689 122.237 24.471 122.656 23.8077C123.074 23.1454 123.399 22.4257 123.632 21.6535C123.867 20.8814 123.983 20.0696 123.983 19.2232C123.983 18.0075 123.754 16.8611 123.292 15.7801C122.831 14.7 122.197 13.7615 121.393 12.9646C120.587 12.1657 119.644 11.5331 118.561 11.0669C117.478 10.6006 116.318 10.3669 115.077 10.3669H103.792C103.25 10.3669 102.979 10.655 102.979 11.2322V36.9159C102.979 37.1851 103.054 37.3841 103.201 37.5138C103.347 37.6425 103.546 37.7078 103.792 37.7078H107.497C108.061 37.7078 108.344 37.4445 108.344 36.9159V28.2071H110.845H112.412C112.81 28.2071 113.125 28.2051 113.351 28.1982C113.58 28.1913 113.793 28.1883 113.989 28.1883L118.451 37.0257C118.597 37.4801 118.894 37.7078 119.336 37.7078H123.615C124.044 37.7078 124.259 37.5227 124.259 37.1554C124.259 37.0198 124.229 36.8911 124.167 36.7674ZM118.239 20.822C118.049 21.3179 117.781 21.7575 117.436 22.1446C117.094 22.5316 116.678 22.8395 116.193 23.0712C115.705 23.3048 115.175 23.4394 114.597 23.4761C114.351 23.5008 114.121 23.5137 113.906 23.5137H113.215H108.344V14.9703H111.979C112.421 14.9703 112.848 14.9742 113.26 14.9792C113.673 14.9851 114.092 14.994 114.523 15.0069C115.101 15.0435 115.636 15.1861 116.128 15.4296C116.62 15.6751 117.043 15.9939 117.399 16.3859C117.757 16.778 118.034 17.2205 118.229 17.7165C118.424 18.2124 118.525 18.7242 118.525 19.2509C118.525 19.8033 118.428 20.326 118.239 20.822Z" fill="white"/>
<path d="M310.062 4.65186H162.144V5.99227H310.062V4.65186Z" fill="#DC2227"/>
<path d="M312.062 8.27715C310.134 8.27715 309.125 6.76151 309.125 5.26567C309.125 4.49151 309.384 3.76488 309.852 3.21743C310.395 2.58583 311.16 2.25122 312.062 2.25122C313.989 2.25122 315 3.76686 315 5.2627C315 6.03685 314.74 6.76448 314.271 7.31094C313.728 7.94254 312.964 8.27715 312.062 8.27715ZM312.062 3.59064C311.555 3.59064 311.155 3.75795 310.872 4.08959C310.613 4.38955 310.466 4.81721 310.466 5.26567C310.466 5.88638 310.802 6.93772 312.062 6.93772C312.568 6.93772 312.969 6.76943 313.253 6.43779C313.51 6.13882 313.657 5.71115 313.657 5.2627C313.657 4.64199 313.322 3.59064 312.062 3.59064Z" fill="#DC2227"/>
<path d="M133.222 4.70923H5.27759V6.04865H133.222V4.70923Z" fill="#DC2227"/>
<path d="M3.27762 8.3333C1.35 8.3333 0.340576 6.81667 0.340576 5.31885C0.340576 4.54569 0.599377 3.82004 1.0674 3.27259C1.61078 2.64198 2.37628 2.30737 3.27762 2.30737C5.20524 2.30737 6.21566 3.82499 6.21566 5.32182C6.21566 6.09696 5.95686 6.82261 5.48685 7.37006C4.94446 7.99869 4.17995 8.3333 3.27762 8.3333ZM3.27762 3.6468C2.77192 3.6468 2.37033 3.81509 2.08575 4.14673C1.82893 4.4457 1.68218 4.87238 1.68218 5.31885C1.68218 5.94154 2.01733 6.99486 3.27762 6.99486C3.78432 6.99486 4.18491 6.82756 4.46949 6.49592C4.7273 6.19695 4.87306 5.77028 4.87306 5.32182C4.87306 4.70012 4.53791 3.6468 3.27762 3.6468Z" fill="#DC2227"/>
<path d="M194.931 36.7326L191.889 29.1376L191.857 29.1574L191.093 29.9216H190.108L189.673 30.5037L187.269 31.1937L189.017 30.1018L190.108 28.6495L191.423 27.9674L186.173 14.8533L185.376 14.9444L184.539 14.3613H183.593L182.573 14.9444L181.474 15.3434L180.606 15.9621L178.932 16.4709L180.498 15.4899C180.498 15.4899 180.971 15.1266 181.08 15.089C181.188 15.0523 181.7 14.7256 181.807 14.7256C181.918 14.7256 182.462 14.29 182.462 14.29C182.462 14.29 183.009 14 183.119 13.9634C183.228 13.9267 183.992 13.6 183.992 13.6H184.791L185.429 12.9962L185.194 12.4111L185.127 12.2517L184.565 12.3458L184.211 12.6992L183.475 12.8912L182.983 12.7546L182.409 12.9447L181.056 13.7228L179.637 14.6633L178.814 15.5265L177.692 16.1017L170.744 33.3716L171.322 33.1558L172.415 32.2104L173.725 30.6839L172.415 32.939L171.685 34.2478L170.376 35.3377L169.837 35.6288L169.777 35.7753C169.716 35.9466 169.646 36.1366 169.567 36.3445C169.484 36.5554 169.414 36.7811 169.354 37.0276C169.342 37.0632 169.336 37.1177 169.336 37.1929C169.336 37.3642 169.405 37.4929 169.548 37.578C169.689 37.6641 169.876 37.7067 170.108 37.7067H173.798C174.266 37.7067 174.584 37.481 174.757 37.0276C174.966 36.4613 175.221 35.801 175.521 35.0487C175.824 34.2923 176.135 33.4845 176.453 32.6252H187.83C188.053 33.2281 188.281 33.8221 188.514 34.4121C188.746 35.0011 188.981 35.5902 189.215 36.1792L189.547 37.0276C189.645 37.2602 189.768 37.4325 189.916 37.5414C190.061 37.6523 190.27 37.7067 190.541 37.7067H194.175C194.716 37.7067 194.985 37.5236 194.985 37.1553C194.985 37.0939 194.977 37.0177 194.959 36.9246C194.938 36.8326 194.931 36.7692 194.931 36.7326ZM178.223 27.8952C178.888 26.2132 179.549 24.4639 180.206 22.6473C180.864 20.8308 181.525 19.0765 182.188 17.3827L186.079 27.8952H178.223Z" fill="#DC2227"/>
<path d="M179.241 14.4446C179.542 14.1724 180.416 13.7902 180.416 13.7902L181.726 13.1359L182.108 12.8359L182.6 12.4815C182.6 12.4815 183.911 12.0726 184.019 12.0182C184.129 11.9637 184.457 11.7727 184.457 11.7727L184.791 11.4618L184.586 10.9758C184.524 10.8649 184.426 10.7362 184.3 10.5887C184.172 10.4422 183.958 10.3679 183.664 10.3679H180.695C180.412 10.3679 180.186 10.4501 180.021 10.6164C179.855 10.7817 179.755 10.9332 179.715 11.0668L178.157 14.9435L178.531 14.8535C178.531 14.8535 178.939 14.7168 179.241 14.4446Z" fill="#DC2227"/>
<path d="M219.973 36.4001L215.178 26.9558C215.879 26.5865 216.519 26.1351 217.097 25.6025C217.674 25.0679 218.172 24.47 218.589 23.8067C218.857 23.385 219.073 22.9286 219.264 22.4594L218.365 22.6376L216.324 23.5127L215.234 24.2136L213.705 24.868L212.028 25.5213L210.282 26.3945L212.392 24.2136L213.485 23.5127L215.835 22.9771L216.708 21.7783L217.527 20.2884L218.456 19.4885L219.916 19.2222C219.916 18.0075 219.687 16.8601 219.226 15.7791C218.764 14.701 218.132 13.7615 217.327 12.9636C216.522 12.1667 215.576 11.5331 214.496 11.0669C213.414 10.6006 212.252 10.3669 211.011 10.3669H199.725C199.184 10.3669 198.914 10.656 198.914 11.2322V19.2202L199.322 19.0331L199.905 19.0153L200.596 18.7965L200.704 18.5064L201.487 18.2342L202.599 18.1431L201.834 18.7252L200.924 19.1242L200.413 19.5964L199.868 20.033L198.914 20.8764V22.1673L200.232 20.8695L200.888 20.3597L201.543 19.8518L203.435 19.1974L204.281 18.4866V14.9703H207.913C208.355 14.9703 208.782 14.9723 209.195 14.9792C209.606 14.9861 210.028 14.994 210.456 15.0069C211.034 15.0435 211.569 15.1851 212.062 15.4296C212.554 15.6742 212.977 15.9929 213.335 16.3849C213.691 16.776 213.966 17.2205 214.165 17.7165C214.361 18.2124 214.458 18.7252 214.458 19.2509C214.458 19.8013 214.364 20.325 214.173 20.821C213.982 21.318 213.715 21.7575 213.371 22.1436C213.027 22.5297 212.611 22.8395 212.127 23.0712C211.641 23.3038 211.11 23.4394 210.532 23.4751C210.285 23.4998 210.055 23.5127 209.838 23.5127H209.148H204.281V19.1806L203.546 20.1419L202.053 21.0516L201.762 22.4327L200.56 22.8316L200.269 23.6681L199.722 24.7957L199.031 25.159L198.914 25.1996V36.9159C198.914 37.1851 198.988 37.3851 199.134 37.5138C199.283 37.6415 199.479 37.7068 199.725 37.7068H203.43C203.998 37.7068 204.281 37.4435 204.281 36.9159V28.2071H206.777H208.345C208.746 28.2071 209.059 28.2042 209.286 28.1972C209.513 28.1913 209.726 28.1883 209.922 28.1883L214.384 37.0257C214.534 37.4801 214.828 37.7068 215.27 37.7068H219.547C219.979 37.7068 220.195 37.5227 220.195 37.1544C220.195 37.0198 220.162 36.8911 220.102 36.7684C220.04 36.6456 219.996 36.5238 219.973 36.4001Z" fill="#DC2227"/>
<path d="M245.623 36.4001L244.746 34.6726L243.777 34.9745L242.193 35.4834L244.313 33.8212L240.829 26.9548C241.529 26.5865 242.168 26.1351 242.746 25.6025C243.324 25.0689 243.822 24.471 244.239 23.8077C244.658 23.1454 244.983 22.4257 245.216 21.6535C245.451 20.8814 245.568 20.0696 245.568 19.2232C245.568 18.0075 245.338 16.8611 244.877 15.7801C244.416 14.7 243.781 13.7615 242.977 12.9646C242.172 12.1657 241.228 11.5331 240.146 11.0669C239.063 10.6006 237.903 10.3669 236.662 10.3669H225.376C224.834 10.3669 224.562 10.655 224.562 11.2322V16.4335L226.593 16.3265L228.776 13.9259L230.961 12.9458L233.657 11.6371L231.543 13.6942L229.929 14.3258L228.997 14.9703L227.758 16.3523L226.884 18.1441L225.21 18.9064L224.562 19.4093V31.078L225.01 30.7216L226.156 30.2851L227.031 29.8475L228.887 28.5398L227.739 30.1752L226.374 31.0473L225.611 32.3016L224.954 33.5559H224.562V36.9159C224.562 37.1851 224.639 37.3841 224.786 37.5138C224.931 37.6425 225.13 37.7078 225.376 37.7078H229.082C229.646 37.7078 229.929 37.4445 229.929 36.9159V28.2071H232.43H233.997C234.394 28.2071 234.709 28.2051 234.937 28.1982C235.164 28.1913 235.377 28.1883 235.573 28.1883L240.036 37.0257C240.182 37.4801 240.478 37.7078 240.92 37.7078H245.199C245.629 37.7078 245.845 37.5227 245.845 37.1554C245.845 37.0198 245.814 36.8911 245.752 36.7674C245.69 36.6446 245.648 36.5228 245.623 36.4001ZM239.824 20.822C239.633 21.3179 239.365 21.7575 239.02 22.1446C238.678 22.5316 238.263 22.8395 237.777 23.0712C237.289 23.3048 236.76 23.4394 236.181 23.4761C235.997 23.4939 235.829 23.4988 235.661 23.5038L235.02 24.0384L234.386 24.3581L232.855 24.9769L231.326 25.5946L229.929 26.3222L229.032 27.3043L227.649 27.8497L225.865 28.9031L227.103 27.4943L227.976 26.3955L229.47 25.9579L229.929 24.9769L231.145 24.178L232.637 23.5137H229.929V14.9703H233.564C234.006 14.9703 234.433 14.9742 234.845 14.9792C235.257 14.9851 235.675 14.994 236.108 15.0069C236.686 15.0435 237.22 15.1861 237.713 15.4296C238.204 15.6751 238.628 15.9939 238.983 16.3859C239.341 16.778 239.617 17.2205 239.814 17.7165C240.009 18.2124 240.109 18.7242 240.109 19.2509C240.109 19.8033 240.012 20.326 239.824 20.822Z" fill="#DC2227"/>
<path d="M252.898 29.7394L251.642 31.0481L250.77 31.9064L250.232 32.3222V36.8968C250.232 37.4374 250.503 37.7076 251.041 37.7076H254.697C255.273 37.7076 255.563 37.4374 255.563 36.8968V27.4941L254.776 28.2129L252.898 29.7394Z" fill="#DC2227"/>
<path d="M254.698 10.3669H251.042C250.772 10.3669 250.57 10.4471 250.434 10.6055C250.299 10.7669 250.233 10.957 250.233 11.1767V30.6028L250.696 30.3207L251.352 29.5931L252.299 28.0665L254.047 27.1944L255.138 26.8301L255.562 26.4084V11.1767C255.562 10.9322 255.469 10.7362 255.286 10.5877C255.101 10.4402 254.907 10.3669 254.698 10.3669Z" fill="#DC2227"/>
<path d="M286.718 16.9592C286.109 15.9158 285.374 14.9645 284.512 14.1052C283.901 13.4953 283.241 12.9519 282.537 12.4688L280.917 13.4538L279.096 14.9704L277.977 15.8356C279.04 16.3029 279.964 16.9384 280.75 17.7413C281.537 18.5452 282.154 19.4876 282.605 20.5677C283.054 21.6477 283.278 22.802 283.278 24.0286C283.278 25.269 283.054 26.4283 282.605 27.5083C282.154 28.5884 281.537 29.5269 280.75 30.3248C279.964 31.1227 279.04 31.7553 277.977 32.2215C276.912 32.6878 275.767 32.9215 274.538 32.9215C273.296 32.9215 272.143 32.6878 271.079 32.2215C270.015 31.7553 269.094 31.1227 268.312 30.3248C267.532 29.5269 266.918 28.5884 266.47 27.5083C266.021 26.4283 265.795 25.269 265.795 24.0286C265.795 22.802 266.021 21.6477 266.47 20.5677C266.524 20.437 266.588 20.3142 266.647 20.1865L265.795 20.2885L264.097 21.4517C264.097 21.4517 262.712 21.8883 262.057 22.0635C261.409 22.2377 260.624 22.0675 260.608 22.0635C260.516 22.7189 260.466 23.3861 260.466 24.0652C260.466 25.367 260.632 26.6154 260.964 27.8122C261.296 29.0081 261.768 30.1258 262.375 31.1633C262.982 32.2008 263.716 33.1452 264.571 33.9975C265.422 34.8519 266.372 35.5835 267.419 36.1982C268.464 36.812 269.586 37.2832 270.785 37.6149C271.983 37.9475 273.233 38.1128 274.538 38.1128C275.84 38.1128 277.092 37.9475 278.29 37.6149C279.489 37.2832 280.61 36.815 281.656 36.2071C282.7 35.6003 283.654 34.8697 284.512 34.0164C285.263 33.2729 285.912 32.4532 286.471 31.5652L284.814 32.3572L282.52 32.9215L281.207 34.647L276.076 35.4825L279.243 33.557H280.335L281.426 31.9077L283.903 31.0484L286.671 28.5399L288.137 27.8211C288.474 26.6302 288.643 25.3848 288.643 24.084C288.643 22.7832 288.474 21.5309 288.137 20.3281C287.798 19.1253 287.324 18.0027 286.718 16.9592Z" fill="#DC2227"/>
<path d="M263.222 19.0161L265.797 18.4706L267.793 18.3301C267.958 18.1261 268.129 17.9281 268.314 17.741C269.094 16.9372 270.016 16.3026 271.08 15.8354C272.143 15.3691 273.295 15.1364 274.538 15.1364C274.98 15.1364 275.411 15.178 275.834 15.2394L276.547 14.9701L277.496 14.1079L280.408 12.5813L282.034 12.1418C281.907 12.0636 281.785 11.9804 281.655 11.9042C280.61 11.2974 279.488 10.8261 278.289 10.4876C277.091 10.15 275.846 9.98169 274.557 9.98169C273.252 9.98169 272.001 10.15 270.804 10.4876C269.605 10.8261 268.483 11.2974 267.438 11.9042C266.392 12.513 265.442 13.2466 264.588 14.1059C263.735 14.9632 262.998 15.9146 262.384 16.959C261.838 17.8846 261.411 18.8775 261.089 19.9308L262.128 20.0685L263.222 19.0161Z" fill="#DC2227"/>
<path d="M314.664 36.7693C314.602 36.6466 314.559 36.5248 314.535 36.4011L309.74 26.9568C310.441 26.5865 311.078 26.1351 311.656 25.6025C312.234 25.0679 312.732 24.471 313.151 23.8077L312.303 24.0463L309.021 25.4501L307.277 26.4668H305.822L307.352 25.5956L309.125 24.0463L310.465 24.0285L311.102 22.9058L312.594 21.8872L314.129 21.6535C314.362 20.8804 314.478 20.0696 314.478 19.2242C314.478 18.0075 314.249 16.8601 313.787 15.7791C313.327 14.702 312.692 13.7615 311.888 12.9646C311.082 12.1657 310.139 11.5331 309.056 11.0678C307.976 10.6006 306.815 10.3679 305.573 10.3679H294.287C293.746 10.3679 293.474 10.657 293.474 11.2331V24.3433L294.317 22.9781L298.029 20.9051L296.173 23.5127L295.298 25.158L293.989 26.3945L293.474 26.6192V36.9158C293.474 37.1861 293.549 37.3861 293.697 37.5148C293.845 37.6415 294.041 37.7078 294.287 37.7078H297.992C298.557 37.7078 298.841 37.4435 298.841 36.9158V28.2071H301.34H302.908C303.307 28.2071 303.621 28.2041 303.847 28.1972C304.076 28.1933 304.288 28.1893 304.484 28.1893L308.946 37.0257C309.093 37.4801 309.388 37.7078 309.833 37.7078H314.111C314.541 37.7078 314.754 37.5227 314.754 37.1544C314.754 37.0208 314.724 36.8921 314.664 36.7693ZM304.402 23.5127H303.711H298.841V14.9693H302.474C302.917 14.9693 303.345 14.9732 303.757 14.9802C304.168 14.9871 304.587 14.995 305.019 15.0069C305.597 15.0435 306.131 15.1861 306.622 15.4306C307.114 15.6751 307.539 15.9929 307.894 16.3859C308.252 16.776 308.529 17.2224 308.724 17.7174C308.923 18.2124 309.021 18.7242 309.021 19.2509C309.021 19.8023 308.926 20.325 308.734 20.821C308.545 21.3179 308.275 21.7595 307.933 22.1436C307.589 22.5306 307.173 22.8395 306.689 23.0722C306.202 23.3038 305.669 23.4404 305.092 23.4761C304.845 23.4998 304.616 23.5127 304.402 23.5127Z" fill="#DC2227"/>
<path d="M161.515 23.3426L162.198 22.8961L163.237 22.8684L164.139 22.2972L164.549 21.7785L165.176 21.4785L165.614 20.143L166.05 19.5698L166.623 18.3433L166.727 18.2443C166.005 14.0082 164.647 9.4702 162.392 4.6748C160.062 4.6748 157.858 7.08834 158.98 9.1247C160.792 12.4163 161.374 18.3443 161.515 23.3426Z" fill="#DC2227"/>
<path d="M129.323 22.3239L130.142 21.8329L131.18 20.2519L133.223 19.5976L133.243 19.5926C133.547 15.6238 134.214 11.6194 135.585 9.1247C136.707 7.08834 134.504 4.6748 132.175 4.6748C128.901 11.6343 127.503 18.0552 127.236 23.7851L128.667 22.6387L129.323 22.3239Z" fill="#DC2227"/>
<path d="M166.626 21.8337L165.351 22.6504L164.767 23.2513L163.566 23.9057H162.624C162.599 23.9166 162.501 23.9621 162.143 24.1235C161.964 24.2057 161.75 24.275 161.536 24.3344C161.568 26.2341 161.543 27.9596 161.501 29.2881C161.476 30.1059 160.407 30.4048 159.963 29.7178C159.158 28.4774 158.331 27.3102 157.504 26.2193L156.029 26.6855L153.736 27.2864L155.456 26.3866L155.675 25.8411L156.412 25.5679L156.806 25.3115C153.632 21.2684 150.596 18.4104 149.119 17.1056L151.662 3.73217L147.283 0L142.905 3.73217L144.414 11.6658L145.653 11.4727L146.637 11.3084L147.837 10.3679L149.804 9.45517L148.384 11.0906L146.417 12.6557L144.803 13.713L145.449 17.1056C143.48 18.843 138.747 23.3385 134.604 29.7178C134.159 30.4048 133.092 30.1059 133.066 29.2881C133.033 28.2358 133.012 26.9271 133.016 25.4857L133.015 25.4867C132.8 25.5233 131.598 26.2866 131.598 26.2866L130.506 27.2864L129.595 28.1398L127.957 29.0129L128.94 27.7775L129.56 27.0865L130.142 25.0145L130.506 25.0511H131.308L133.053 23.3305C133.07 22.7039 133.095 22.0614 133.127 21.413L132.218 21.9367L131.016 23.3424L128.721 24.0384L127.188 25.8054C127.178 38.4226 132.592 47.359 134.992 50.6942L138.67 45.6265C137.931 43.5219 137.191 40.8252 137.261 38.5819C137.261 38.5819 137.513 42.5586 142.957 40.9767C142.957 40.9767 140.149 40.8064 139.154 39.6531C138.991 39.4254 138.903 39.2264 138.863 39.1155C138.854 39.0829 138.838 39.0532 138.831 39.0175C138.831 39.0175 140.719 39.6561 144.523 39.9897V39.1353V38.7047C144.523 38.7047 139.699 37.8375 137.499 36.9238C137.543 36.7673 137.593 36.6149 137.65 36.4674C137.65 36.4674 138.752 33.3114 141.143 29.2278C142.209 27.6992 144.178 25.7381 147.283 25.7005C150.388 25.7381 152.357 27.6992 153.425 29.2278C155.817 33.3114 156.916 36.4674 156.916 36.4674C156.976 36.6149 157.024 36.7683 157.068 36.9247C154.869 37.8375 150.048 38.7047 150.048 38.7047V39.1353H150.043V39.9897C150.043 39.9897 150.047 39.9887 150.048 39.9887V39.9897C153.816 39.659 155.701 39.0304 155.737 39.0185C155.736 39.0225 155.661 39.3086 155.407 39.663C154.405 40.8074 151.613 40.9767 151.613 40.9767C156.791 42.4794 157.27 38.9641 157.307 38.6156C157.363 40.752 156.694 43.2952 155.994 45.3444L159.726 50.4843C161.184 48.4232 163.588 44.499 165.319 39.0918L164.841 39.4096L164.404 40.0639L163.821 40.9361L158.391 44.3129L160.809 41.7894L162.925 40.7124C162.925 40.7124 163.966 39.5531 164.041 39.3373C164.113 39.1185 164.549 38.3919 164.696 38.1008C164.761 37.9701 165.309 37.5623 165.894 37.1524C165.995 36.7733 166.091 36.3862 166.185 35.9962C166.176 35.9942 166.002 35.9635 165.86 35.9962C165.715 36.0288 166.298 35.6655 165.715 36.0288C165.131 36.3931 165.387 36.209 165.131 36.3931C164.877 36.5743 164.585 36.7555 164.585 36.7555L163.858 37.3009L162.62 37.7078L163.494 37.0089L165.131 35.3012L166.584 34.1608C167.319 30.389 167.629 26.1044 167.157 21.3971C166.88 21.6189 166.626 21.8337 166.626 21.8337Z" fill="#DC2227"/>
</svg>
