<svg width="366" height="66" viewBox="0 0 366 66" fill="none" xmlns="http://www.w3.org/2000/svg">
<g style="mix-blend-mode:lighten" filter="url(#filter0_d_9_74)">
<path d="M29.1425 35.9292C28.891 35.6243 28.6496 35.4707 28.4126 35.4707C28.3262 35.4841 28.2273 35.5054 28.1094 35.5335C27.9915 35.5615 27.8759 35.6164 27.7636 35.6994C26.9012 36.3249 25.958 36.8115 24.935 37.159C23.9121 37.5077 22.8364 37.6803 21.709 37.6803C20.2885 37.6803 18.986 37.4169 17.8024 36.8877C16.6212 36.3597 15.5971 35.6377 14.7336 34.7196C13.869 33.8025 13.1997 32.7286 12.7191 31.4987C12.2374 30.2689 11.996 28.9528 11.996 27.547C11.996 26.1311 12.2374 24.8037 12.7191 23.5661C13.1997 22.3295 13.869 21.2522 14.7336 20.334C15.5971 19.417 16.6212 18.6917 17.8024 18.1558C18.986 17.621 20.2885 17.3531 21.709 17.3531C22.8364 17.3531 23.902 17.5269 24.9036 17.8744C25.9052 18.2231 26.8462 18.7085 27.7209 19.3329C27.8343 19.4035 27.9455 19.4562 28.0567 19.4899C28.1678 19.5246 28.2666 19.5426 28.3497 19.5426C28.6125 19.5426 28.864 19.3822 29.101 19.0627L31.1266 15.6233C31.2109 15.4563 31.2513 15.296 31.2513 15.1424C31.2513 14.9495 31.1963 14.7814 31.084 14.6424C30.9739 14.5045 30.8347 14.3856 30.6651 14.2881C29.357 13.4137 27.9579 12.7422 26.47 12.2769C24.9799 11.8106 23.4068 11.5785 21.7505 11.5785C20.275 11.5785 18.858 11.7691 17.5015 12.1514C16.1439 12.5336 14.8728 13.0684 13.6882 13.7567C12.5069 14.4451 11.4312 15.2758 10.4632 16.2477C9.49643 17.2208 8.66437 18.3015 7.96818 19.4899C7.26974 20.6782 6.73637 21.9506 6.3602 23.306C5.98403 24.6602 5.79651 26.075 5.79651 27.547C5.79651 29.0223 5.98403 30.436 6.3602 31.7913C6.73637 33.1456 7.26974 34.4113 7.96818 35.585C8.66437 36.7599 9.49643 37.8305 10.4632 38.7958C11.4312 39.7621 12.5069 40.5917 13.6882 41.2868C14.8728 41.9818 16.1439 42.5166 17.5015 42.8921C18.858 43.2677 20.275 43.456 21.7505 43.456C23.4214 43.456 25.0103 43.2161 26.5228 42.7363C28.0331 42.2565 29.4423 41.5794 30.7516 40.7038C30.9021 40.5917 31.0379 40.474 31.1581 40.3496C31.2749 40.224 31.3355 40.0637 31.3355 39.8698C31.3355 39.7319 31.294 39.5772 31.2109 39.4101L29.1425 35.9292Z" fill="white"/>
<path d="M60.2993 12.0359H54.5355C54.339 12.0785 54.1885 12.1233 54.0762 12.1715C53.9628 12.2197 53.8314 12.398 53.6787 12.704L47.3524 24.649L44.2812 30.1949V42.0166C44.2812 42.6702 44.5743 42.9964 45.1605 42.9964H49.4196C50.0462 42.9964 50.3572 42.6702 50.3572 42.0166V30.1535C52.0719 27.3048 53.7562 24.4315 55.4113 21.5325C57.0698 18.6345 58.7384 15.7612 60.4228 12.9114C60.6036 12.6895 60.6956 12.5157 60.6956 12.3901C60.6956 12.1536 60.562 12.0359 60.2993 12.0359Z" fill="white"/>
<path d="M41.0247 12.7871C40.9271 12.6066 40.8473 12.4676 40.7844 12.3701C40.7204 12.2737 40.6598 12.203 40.5958 12.1604C40.534 12.1189 40.4678 12.0954 40.3971 12.0887C40.3286 12.082 40.2376 12.064 40.1264 12.0371H34.4042C34.1403 12.0371 34.0078 12.1402 34.0078 12.3488C34.0078 12.4194 34.0303 12.5203 34.0707 12.6515C34.1122 12.7849 34.1684 12.8846 34.2369 12.953L42.5159 27.1637L45.6735 21.5595L41.0247 12.7871Z" fill="white"/>
<path d="M87.8393 29.6333C87.508 29.0066 87.1116 28.4248 86.6513 27.8811C86.1931 27.3396 85.6788 26.8586 85.1062 26.4438C85.8181 25.7073 86.375 24.8531 86.7782 23.8788C87.1824 22.9069 87.3845 21.8564 87.3845 20.7298C87.3845 19.5067 87.1566 18.3677 86.7052 17.3116C86.2538 16.2545 85.6339 15.3386 84.849 14.5594C84.0641 13.7803 83.1355 13.1659 82.0744 12.7153C81.0099 12.2635 79.8724 12.0359 78.663 12.0359H65.6027C64.9773 12.0359 64.6628 12.3621 64.6628 13.0157V42.1007C64.6628 42.4056 64.7493 42.6309 64.9256 42.7767C65.0985 42.9235 65.3242 42.9975 65.6038 42.9975H79.9712C81.2097 42.9975 82.3719 42.7509 83.4589 42.2554C84.5425 41.7644 85.4868 41.0917 86.2874 40.2464C87.0892 39.3978 87.7203 38.418 88.1863 37.3048C88.6545 36.1927 88.8881 35.0178 88.8881 33.7812C88.8881 33.0458 88.7949 32.325 88.6107 31.6243C88.4277 30.9225 88.1705 30.2577 87.8393 29.6333ZM70.6984 17.1031H77.5413C78.0993 17.1031 78.6114 17.1973 79.0785 17.3845C79.5456 17.5717 79.9476 17.8318 80.2811 18.1659C80.6146 18.5 80.8785 18.8957 81.066 19.3553C81.2547 19.8127 81.349 20.306 81.349 20.834C81.349 21.3755 81.2513 21.8811 81.0559 22.3475C80.8605 22.8138 80.5921 23.2152 80.2508 23.556C79.9061 23.8968 79.4996 24.1647 79.0246 24.3587C78.5507 24.5515 78.0342 24.649 77.4761 24.649H70.6984V17.1031ZM82.455 35.085C82.2888 35.5503 82.0541 35.9718 81.7543 36.3462C81.4534 36.7218 81.1031 37.0335 80.6988 37.2846C80.2923 37.5346 79.8544 37.6938 79.3805 37.7644C79.101 37.8182 78.8225 37.8586 78.544 37.8787C78.2655 37.9 77.9792 37.9112 77.685 37.9112H70.6984V29.4461H77.685C77.9792 29.4461 78.2678 29.4618 78.553 29.4976C78.8382 29.5324 79.1223 29.5716 79.3996 29.6109C79.8757 29.6949 80.3148 29.8586 80.719 30.103C81.1222 30.3452 81.4725 30.6479 81.7644 31.0077C82.0575 31.3709 82.2888 31.7779 82.455 32.2274C82.6212 32.6792 82.7065 33.1433 82.7065 33.6142C82.7065 34.1288 82.6212 34.6198 82.455 35.085Z" fill="white"/>
<path d="M115.114 37.2834H99.724V29.7162H111.208C111.517 29.7162 111.739 29.6187 111.877 29.4248C112.017 29.2297 112.087 29.0077 112.087 28.7589V24.9831C112.087 24.6367 112.003 24.3889 111.837 24.2432C111.67 24.0963 111.445 24.0392 111.167 24.0661H99.724V17.7477H114.572C114.919 17.7477 115.182 17.6513 115.355 17.4563C115.529 17.2623 115.614 17.037 115.614 16.787V13.1043C115.614 12.796 115.539 12.5437 115.386 12.3397C115.231 12.1368 114.975 12.0359 114.613 12.0359H94.4823C93.8704 12.0359 93.5649 12.37 93.5649 13.037V42.1209C93.5649 42.4269 93.6548 42.6489 93.8356 42.7879C94.0163 42.9269 94.2308 42.9975 94.4823 42.9975H115.156C115.769 42.9975 116.073 42.7038 116.073 42.1175V38.3092C116.073 37.9606 116.014 37.7027 115.886 37.5357C115.762 37.3675 115.505 37.2834 115.114 37.2834Z" fill="white"/>
<path d="M145.06 41.9325C144.991 41.7935 144.943 41.6556 144.916 41.5166L139.485 30.8205C140.279 30.4035 141.002 29.8923 141.657 29.2891C142.31 28.6849 142.874 28.0077 143.349 27.2566C143.822 26.5066 144.19 25.6916 144.454 24.8172C144.72 23.9427 144.852 23.0235 144.852 22.065C144.852 20.6883 144.592 19.3901 144.069 18.1659C143.547 16.9428 142.829 15.88 141.919 14.9776C141.006 14.0729 139.938 13.3565 138.712 12.8285C137.485 12.3005 136.172 12.0359 134.766 12.0359H121.986C121.373 12.0359 121.065 12.3621 121.065 13.0157V42.1007C121.065 42.4056 121.151 42.6309 121.317 42.7778C121.483 42.9235 121.708 42.9975 121.986 42.9975H126.182C126.821 42.9975 127.141 42.6993 127.141 42.1007V32.2386H129.973H131.749C132.199 32.2386 132.556 32.2364 132.812 32.2286C133.071 32.2207 133.312 32.2173 133.534 32.2173L138.587 42.2251C138.752 42.7397 139.089 42.9975 139.589 42.9975H144.435C144.92 42.9975 145.164 42.7879 145.164 42.372C145.164 42.2184 145.13 42.0726 145.06 41.9325ZM138.347 23.8755C138.132 24.4371 137.828 24.9349 137.437 25.3732C137.05 25.8116 136.579 26.1602 136.03 26.4225C135.478 26.6871 134.877 26.8396 134.222 26.8811C133.944 26.9091 133.683 26.9237 133.44 26.9237H132.657H127.141V17.2489H131.258C131.759 17.2489 132.242 17.2533 132.709 17.2589C133.176 17.2657 133.651 17.2758 134.139 17.2903C134.793 17.3318 135.399 17.4932 135.956 17.769C136.513 18.0471 136.992 18.408 137.396 18.852C137.801 19.2959 138.114 19.797 138.335 20.3587C138.557 20.9204 138.671 21.4999 138.671 22.0963C138.671 22.7219 138.561 23.3138 138.347 23.8755Z" fill="white"/>
<path d="M355.573 5.56409H188.066V7.08201H355.573V5.56409Z" fill="#DC2227"/>
<path d="M357.838 9.66952C355.655 9.66952 354.512 7.95317 354.512 6.25923C354.512 5.38256 354.805 4.55969 355.335 3.93974C355.95 3.2245 356.817 2.84558 357.838 2.84558C360.021 2.84558 361.165 4.56194 361.165 6.25587C361.165 7.13254 360.871 7.95653 360.34 8.57536C359.724 9.2906 358.86 9.66952 357.838 9.66952ZM357.838 4.36239C357.264 4.36239 356.811 4.55185 356.49 4.9274C356.197 5.26709 356.031 5.75139 356.031 6.25923C356.031 6.96214 356.411 8.15272 357.838 8.15272C358.412 8.15272 358.865 7.96213 359.186 7.58658C359.478 7.24801 359.644 6.76371 359.644 6.25587C359.644 5.55296 359.265 4.36239 357.838 4.36239Z" fill="#DC2227"/>
<path d="M155.315 5.62903H10.4261V7.14583H155.315V5.62903Z" fill="#DC2227"/>
<path d="M8.1612 9.73324C5.97831 9.73324 4.83521 8.01576 4.83521 6.31959C4.83521 5.44404 5.12828 4.62229 5.65828 4.00234C6.27363 3.28822 7.1405 2.9093 8.1612 2.9093C10.3441 2.9093 11.4883 4.6279 11.4883 6.32295C11.4883 7.20075 11.1952 8.02249 10.663 8.64244C10.0488 9.35432 9.18303 9.73324 8.1612 9.73324ZM8.1612 4.42611C7.58853 4.42611 7.13376 4.61669 6.81149 4.99225C6.52066 5.33081 6.35447 5.81399 6.35447 6.31959C6.35447 7.02474 6.73401 8.21756 8.1612 8.21756C8.735 8.21756 9.18865 8.0281 9.51091 7.65254C9.80287 7.31398 9.96793 6.8308 9.96793 6.32295C9.96793 5.61892 9.58839 4.42611 8.1612 4.42611Z" fill="#DC2227"/>
<path d="M225.196 41.8934L221.751 33.2926L221.715 33.315L220.849 34.1805H219.734L219.241 34.8397L216.519 35.621L218.499 34.3845L219.734 32.7399L221.223 31.9675L215.277 17.1167L214.375 17.2198L213.427 16.5595H212.355L211.201 17.2198L209.956 17.6716L208.973 18.3723L207.078 18.9485L208.851 17.8375C208.851 17.8375 209.386 17.4261 209.51 17.3835C209.632 17.342 210.212 16.9721 210.333 16.9721C210.459 16.9721 211.075 16.4788 211.075 16.4788C211.075 16.4788 211.695 16.1503 211.819 16.1089C211.942 16.0674 212.808 15.6974 212.808 15.6974H213.713L214.435 15.0136L214.169 14.351L214.094 14.1705L213.457 14.277L213.056 14.6773L212.222 14.8947L211.665 14.74L211.015 14.9553L209.483 15.8364L207.876 16.9015L206.944 17.879L205.673 18.5304L197.805 38.0874L198.46 37.843L199.697 36.7724L201.181 35.0437L199.697 37.5975L198.871 39.0795L197.388 40.3138L196.779 40.6434L196.71 40.8093C196.642 41.0033 196.562 41.2185 196.472 41.454C196.379 41.6927 196.299 41.9483 196.231 42.2275C196.217 42.2678 196.21 42.3295 196.21 42.4147C196.21 42.6087 196.289 42.7544 196.451 42.8508C196.61 42.9483 196.822 42.9965 197.085 42.9965H201.263C201.793 42.9965 202.154 42.7409 202.349 42.2275C202.586 41.5862 202.875 40.8385 203.215 39.9865C203.557 39.13 203.91 38.2152 204.271 37.2421H217.153C217.406 37.9248 217.664 38.5975 217.928 39.2656C218.191 39.9327 218.457 40.5997 218.722 41.2667L219.098 42.2275C219.209 42.4909 219.349 42.686 219.516 42.8093C219.68 42.9349 219.917 42.9965 220.225 42.9965H224.339C224.952 42.9965 225.256 42.7891 225.256 42.3721C225.256 42.3026 225.247 42.2163 225.227 42.1109C225.203 42.0066 225.196 41.9349 225.196 41.8934ZM206.275 31.8856C207.027 29.9809 207.776 28 208.521 25.9429C209.265 23.8857 210.014 21.8992 210.765 19.981L215.172 31.8856H206.275Z" fill="#DC2227"/>
<path d="M207.427 16.6537C207.768 16.3454 208.758 15.9126 208.758 15.9126L210.242 15.1716L210.674 14.8319L211.231 14.4306C211.231 14.4306 212.716 13.9676 212.838 13.9059C212.963 13.8443 213.335 13.6279 213.335 13.6279L213.713 13.2759L213.481 12.7254C213.41 12.5999 213.3 12.4541 213.156 12.2871C213.011 12.1212 212.77 12.0371 212.436 12.0371H209.074C208.753 12.0371 208.498 12.1302 208.311 12.3185C208.123 12.5057 208.01 12.6772 207.965 12.8286L206.2 17.2187L206.623 17.1167C206.623 17.1167 207.086 16.962 207.427 16.6537Z" fill="#DC2227"/>
<path d="M253.554 41.5166L248.124 30.8216C248.918 30.4035 249.642 29.8923 250.296 29.2891C250.95 28.6837 251.514 28.0066 251.986 27.2555C252.29 26.7779 252.534 26.2611 252.751 25.7297L251.733 25.9315L249.422 26.9225L248.187 27.7163L246.455 28.4573L244.556 29.1972L242.579 30.186L244.968 27.7163L246.207 26.9225L248.867 26.316L249.856 24.9584L250.784 23.2712L251.836 22.3654L253.489 22.0638C253.489 20.6883 253.229 19.389 252.707 18.1648C252.184 16.9439 251.469 15.88 250.557 14.9764C249.645 14.074 248.574 13.3565 247.351 12.8285C246.126 12.3005 244.81 12.0359 243.404 12.0359H230.625C230.011 12.0359 229.706 12.3632 229.706 13.0157V22.0616L230.168 21.8497L230.828 21.8295L231.61 21.5818L231.733 21.2533L232.62 20.945L233.879 20.8419L233.013 21.5011L231.982 21.9529L231.403 22.4876L230.786 22.982L229.706 23.9371V25.399L231.198 23.9293L231.941 23.3519L232.683 22.7768L234.825 22.0358L235.783 21.2309V17.2489H239.896C240.397 17.2489 240.881 17.2511 241.348 17.2589C241.814 17.2668 242.291 17.2758 242.776 17.2903C243.431 17.3318 244.036 17.4921 244.594 17.769C245.153 18.0459 245.631 18.4069 246.036 18.8509C246.439 19.2937 246.752 19.797 246.976 20.3587C247.198 20.9204 247.308 21.5011 247.308 22.0963C247.308 22.7197 247.202 23.3127 246.985 23.8744C246.769 24.4371 246.466 24.9349 246.078 25.3721C245.688 25.8093 245.217 26.1602 244.669 26.4225C244.118 26.686 243.516 26.8396 242.862 26.8799C242.582 26.908 242.322 26.9225 242.077 26.9225H241.295H235.783V22.0168L234.951 23.1053L233.26 24.1356L232.931 25.6995L231.57 26.1512L231.24 27.0986L230.621 28.3754L229.839 28.7869L229.706 28.8328V42.1007C229.706 42.4056 229.789 42.6321 229.955 42.7778C230.124 42.9224 230.346 42.9964 230.625 42.9964H234.82C235.463 42.9964 235.783 42.6982 235.783 42.1007V32.2386H238.611H240.386C240.839 32.2386 241.194 32.2353 241.451 32.2274C241.709 32.2207 241.95 32.2173 242.171 32.2173L247.224 42.2251C247.394 42.7397 247.727 42.9964 248.228 42.9964H253.071C253.561 42.9964 253.804 42.7879 253.804 42.3709C253.804 42.2184 253.767 42.0726 253.7 41.9336C253.629 41.7946 253.58 41.6567 253.554 41.5166Z" fill="#DC2227"/>
<path d="M282.6 41.5166L281.607 39.5603L280.51 39.9023L278.716 40.4785L281.116 38.5962L277.172 30.8205C277.965 30.4035 278.688 29.8923 279.342 29.2891C279.997 28.6849 280.561 28.0077 281.033 27.2566C281.507 26.5066 281.876 25.6916 282.139 24.8172C282.406 23.9427 282.538 23.0235 282.538 22.065C282.538 20.6883 282.278 19.3901 281.755 18.1659C281.233 16.9428 280.515 15.88 279.604 14.9776C278.692 14.0729 277.623 13.3565 276.398 12.8285C275.172 12.3005 273.858 12.0359 272.452 12.0359H259.671C259.058 12.0359 258.751 12.3621 258.751 13.0157V18.9058L261.05 18.7847L263.522 16.0661L265.997 14.9563L269.05 13.4742L266.656 15.8038L264.828 16.519L263.772 17.2489L262.37 18.8139L261.379 20.843L259.484 21.7062L258.751 22.2757V35.4897L259.257 35.0862L260.555 34.5918L261.546 34.0963L263.648 32.6153L262.347 34.4673L260.802 35.455L259.938 36.8754L259.194 38.2958H258.751V42.1007C258.751 42.4056 258.837 42.6309 259.003 42.7778C259.168 42.9235 259.393 42.9975 259.671 42.9975H263.869C264.508 42.9975 264.828 42.6993 264.828 42.1007V32.2386H267.66H269.435C269.884 32.2386 270.241 32.2364 270.5 32.2286C270.757 32.2207 270.997 32.2173 271.219 32.2173L276.273 42.2251C276.438 42.7397 276.774 42.9975 277.274 42.9975H282.12C282.607 42.9975 282.851 42.7879 282.851 42.372C282.851 42.2184 282.817 42.0726 282.747 41.9325C282.676 41.7935 282.629 41.6556 282.6 41.5166ZM276.033 23.8755C275.818 24.4371 275.513 24.9349 275.122 25.3732C274.735 25.8116 274.266 26.1602 273.715 26.4225C273.163 26.6871 272.563 26.8396 271.908 26.8811C271.7 26.9012 271.509 26.9068 271.319 26.9125L270.593 27.5178L269.875 27.8799L268.141 28.5806L266.41 29.2801L264.828 30.1041L263.812 31.2162L262.246 31.8339L260.226 33.0268L261.628 31.4315L262.617 30.1871L264.308 29.6916L264.828 28.5806L266.204 27.6759L267.894 26.9237H264.828V17.2489H268.944C269.445 17.2489 269.928 17.2533 270.395 17.2589C270.861 17.2657 271.335 17.2758 271.826 17.2903C272.479 17.3318 273.084 17.4932 273.642 17.769C274.198 18.0471 274.679 18.408 275.081 18.852C275.486 19.2959 275.798 19.797 276.022 20.3587C276.243 20.9204 276.357 21.4999 276.357 22.0963C276.357 22.7219 276.246 23.3138 276.033 23.8755Z" fill="#DC2227"/>
<path d="M290.838 33.9741L289.417 35.4562L288.429 36.4281L287.82 36.899V42.0794C287.82 42.6915 288.127 42.9976 288.736 42.9976H292.876C293.529 42.9976 293.857 42.6915 293.857 42.0794V31.4315L292.965 32.2454L290.838 33.9741Z" fill="#DC2227"/>
<path d="M292.878 12.0359H288.736C288.431 12.0359 288.202 12.1267 288.048 12.3061C287.895 12.4888 287.821 12.704 287.821 12.9529V34.9516L288.346 34.6321L289.088 33.8081L290.16 32.0795L292.14 31.0918L293.375 30.6792L293.856 30.2017V12.9529C293.856 12.676 293.75 12.454 293.544 12.2859C293.334 12.1188 293.113 12.0359 292.878 12.0359Z" fill="#DC2227"/>
<path d="M329.137 19.5012C328.448 18.3196 327.615 17.2422 326.64 16.2691C325.948 15.5786 325.2 14.9631 324.403 14.416L322.568 15.5315L320.506 17.249L319.239 18.2288C320.442 18.7579 321.489 19.4776 322.379 20.3868C323.27 21.2971 323.969 22.3644 324.48 23.5875C324.988 24.8106 325.242 26.1177 325.242 27.5067C325.242 28.9114 324.988 30.2242 324.48 31.4473C323.969 32.6704 323.27 33.7331 322.379 34.6367C321.489 35.5403 320.442 36.2567 319.239 36.7847C318.033 37.3127 316.736 37.5773 315.345 37.5773C313.938 37.5773 312.633 37.3127 311.428 36.7847C310.223 36.2567 309.18 35.5403 308.294 34.6367C307.41 33.7331 306.715 32.6704 306.208 31.4473C305.7 30.2242 305.444 28.9114 305.444 27.5067C305.444 26.1177 305.7 24.8106 306.208 23.5875C306.269 23.4395 306.341 23.3005 306.409 23.1559L305.444 23.2713L303.52 24.5886C303.52 24.5886 301.953 25.083 301.211 25.2814C300.476 25.4787 299.588 25.2859 299.57 25.2814C299.466 26.0235 299.408 26.7791 299.408 27.5482C299.408 29.0224 299.597 30.4361 299.973 31.7914C300.348 33.1457 300.883 34.4114 301.571 35.5863C302.258 36.7611 303.089 37.8306 304.057 38.7959C305.022 39.7633 306.098 40.5918 307.283 41.288C308.466 41.9831 309.737 42.5167 311.094 42.8922C312.451 43.2689 313.867 43.4561 315.345 43.4561C316.819 43.4561 318.237 43.2689 319.594 42.8922C320.951 42.5167 322.221 41.9864 323.405 41.2981C324.587 40.6109 325.667 39.7835 326.64 38.8172C327.49 37.9752 328.225 37.047 328.857 36.0414L326.981 36.9383L324.384 37.5773L322.897 39.5313L317.086 40.4775L320.673 38.297H321.909L323.145 36.4293L325.95 35.4562L329.084 32.6154L330.745 31.8015C331.126 30.4529 331.318 29.0426 331.318 27.5695C331.318 26.0964 331.126 24.6783 330.745 23.3162C330.361 21.9541 329.824 20.6828 329.137 19.5012Z" fill="#DC2227"/>
<path d="M302.53 21.8307L305.446 21.213L307.707 21.0538C307.893 20.8229 308.087 20.5987 308.296 20.3868C309.18 19.4765 310.224 18.7579 311.429 18.2287C312.633 17.7007 313.938 17.4373 315.345 17.4373C315.845 17.4373 316.334 17.4843 316.812 17.5538L317.619 17.2489L318.694 16.2725L321.992 14.5438L323.834 14.046C323.69 13.9575 323.552 13.8633 323.405 13.777C322.221 13.0898 320.95 12.5561 319.592 12.1727C318.236 11.7904 316.826 11.5999 315.366 11.5999C313.888 11.5999 312.472 11.7904 311.116 12.1727C309.758 12.5561 308.488 13.0898 307.305 13.777C306.12 14.4664 305.044 15.2971 304.077 16.2702C303.111 17.2411 302.276 18.3184 301.581 19.5011C300.963 20.5493 300.48 21.6738 300.115 22.8666L301.292 23.0224L302.53 21.8307Z" fill="#DC2227"/>
<path d="M360.784 41.9349C360.715 41.7958 360.665 41.658 360.638 41.5178L355.208 30.8228C356.002 30.4036 356.724 29.8924 357.379 29.2892C358.033 28.6838 358.597 28.0078 359.071 27.2567L358.111 27.5269L354.394 29.1166L352.419 30.2679H350.771L352.504 29.2814L354.512 27.5269L356.029 27.5067L356.751 26.2354L358.441 25.0819L360.179 24.8173C360.443 23.9417 360.574 23.0236 360.574 22.0662C360.574 20.6884 360.315 19.3891 359.792 18.1649C359.271 16.9451 358.551 15.8801 357.641 14.9777C356.728 14.073 355.66 13.3566 354.434 12.8297C353.21 12.3006 351.895 12.0371 350.49 12.0371H337.709C337.096 12.0371 336.788 12.3645 336.788 13.0169V27.8632L337.743 26.3173L341.947 23.9698L339.845 26.9226L338.854 28.7859L337.372 30.1861L336.788 30.4406V42.1008C336.788 42.4068 336.873 42.6333 337.041 42.779C337.208 42.9225 337.43 42.9976 337.709 42.9976H341.905C342.544 42.9976 342.866 42.6983 342.866 42.1008V32.2387H345.696H347.471C347.924 32.2387 348.279 32.2354 348.535 32.2275C348.794 32.223 349.034 32.2186 349.257 32.2186L354.31 42.2252C354.476 42.7398 354.809 42.9976 355.314 42.9976H360.158C360.645 42.9976 360.886 42.788 360.886 42.371C360.886 42.2196 360.853 42.0739 360.784 41.9349ZM349.163 26.9226H348.381H342.866V17.2478H346.981C347.481 17.2478 347.966 17.2523 348.432 17.2602C348.898 17.268 349.373 17.277 349.862 17.2904C350.517 17.3319 351.122 17.4933 351.678 17.7702C352.235 18.0472 352.716 18.407 353.118 18.8521C353.524 19.2938 353.837 19.7994 354.058 20.3599C354.283 20.9204 354.394 21.5 354.394 22.0964C354.394 22.7209 354.286 23.3128 354.069 23.8745C353.855 24.4372 353.549 24.9372 353.162 25.3722C352.772 25.8105 352.302 26.1603 351.753 26.4238C351.201 26.6861 350.599 26.8408 349.945 26.8812C349.665 26.9081 349.406 26.9226 349.163 26.9226Z" fill="#DC2227"/>
<path d="M187.354 26.7298L188.128 26.2242L189.304 26.1928L190.325 25.546L190.79 24.9585L191.5 24.6188L191.996 23.1065L192.489 22.4574L193.138 21.0684L193.256 20.9563C192.439 16.1593 190.9 11.0203 188.347 5.58984C185.709 5.58984 183.213 8.32301 184.483 10.629C186.536 14.3566 187.195 21.0695 187.354 26.7298Z" fill="#DC2227"/>
<path d="M150.898 25.5762L151.826 25.0202L153.002 23.2298L155.316 22.4888L155.338 22.4832C155.682 17.9889 156.438 13.4541 157.991 10.629C159.261 8.32301 156.766 5.58984 154.129 5.58984C150.421 13.4709 148.838 20.7422 148.536 27.2309L150.156 25.9327L150.898 25.5762Z" fill="#DC2227"/>
<path d="M193.142 25.0213L191.699 25.9462L191.037 26.6266L189.676 27.3677H188.61C188.582 27.38 188.47 27.4316 188.065 27.6143C187.863 27.7074 187.62 27.7858 187.378 27.8531C187.414 30.0044 187.386 31.9584 187.339 33.4629C187.31 34.3889 186.1 34.7275 185.597 33.9495C184.685 32.5448 183.749 31.223 182.812 29.9876L181.141 30.5156L178.545 31.1961L180.492 30.1771L180.74 29.5594L181.576 29.2499L182.022 28.9596C178.427 24.3812 174.989 21.1446 173.317 19.6671L176.196 4.52257L171.237 0.296143L166.28 4.52257L167.989 13.5068L169.391 13.2882L170.505 13.1021L171.865 12.0371L174.092 11.0035L172.484 12.8555L170.257 14.6279L168.429 15.8252L169.16 19.6671C166.931 21.6345 161.57 26.7253 156.879 33.9495C156.375 34.7275 155.167 34.3889 155.137 33.4629C155.1 32.2712 155.077 30.7892 155.081 29.1569L155.08 29.158C154.837 29.1995 153.476 30.0638 153.476 30.0638L152.238 31.1961L151.207 32.1625L149.352 33.1513L150.465 31.7522L151.167 30.9697L151.826 28.6233L152.238 28.6648H153.147L155.123 26.7163C155.142 26.0067 155.17 25.2791 155.207 24.5448L154.177 25.1379L152.816 26.7298L150.217 27.5179L148.481 29.519C148.47 43.807 154.601 53.9269 157.319 57.7038L161.484 51.965C160.647 49.5816 159.809 46.5278 159.888 43.9875C159.888 43.9875 160.174 48.4908 166.338 46.6994C166.338 46.6994 163.158 46.5065 162.032 45.2005C161.848 44.9426 161.748 44.7173 161.702 44.5918C161.692 44.5548 161.674 44.5211 161.666 44.4808C161.666 44.4808 163.804 45.2039 168.112 45.5817V44.6142V44.1265C168.112 44.1265 162.65 43.1445 160.158 42.1097C160.207 41.9326 160.265 41.7599 160.329 41.5929C160.329 41.5929 161.576 38.0189 164.285 33.3945C165.492 31.6636 167.722 29.4428 171.237 29.4002C174.753 29.4428 176.983 31.6636 178.193 33.3945C180.901 38.0189 182.146 41.5929 182.146 41.5929C182.214 41.7599 182.269 41.9337 182.318 42.1108C179.828 43.1445 174.368 44.1265 174.368 44.1265V44.6142H174.362V45.5817C174.362 45.5817 174.367 45.5805 174.368 45.5805V45.5817C178.636 45.2072 180.771 44.4953 180.811 44.4819C180.81 44.4864 180.725 44.8104 180.437 45.2117C179.302 46.5077 176.141 46.6994 176.141 46.6994C182.005 48.4011 182.547 44.4202 182.589 44.0256C182.653 46.4449 181.895 49.3249 181.102 51.6455L185.329 57.4661C186.979 55.132 189.702 50.6881 191.662 44.5648L191.12 44.9247L190.625 45.6657L189.966 46.6534L183.816 50.4774L186.555 47.6198L188.951 46.4C188.951 46.4 190.13 45.0873 190.214 44.8429C190.296 44.5951 190.79 43.7723 190.956 43.4427C191.029 43.2947 191.65 42.8328 192.313 42.3687C192.427 41.9393 192.536 41.501 192.643 41.0593C192.633 41.057 192.435 41.0223 192.275 41.0593C192.111 41.0963 192.771 40.6848 192.111 41.0963C191.449 41.5088 191.739 41.3003 191.449 41.5088C191.161 41.714 190.831 41.9191 190.831 41.9191L190.008 42.5368L188.605 42.9976L189.596 42.2061L191.449 40.2723L193.094 38.9808C193.927 34.7095 194.278 29.8576 193.743 24.5269C193.43 24.778 193.142 25.0213 193.142 25.0213Z" fill="#DC2227"/>
</g>
<defs>
<filter id="filter0_d_9_74" x="0.835205" y="0.296143" width="364.33" height="65.4076" filterUnits="userSpaceOnUse" color-interpolation-filters="sRGB">
<feFlood flood-opacity="0" result="BackgroundImageFix"/>
<feColorMatrix in="SourceAlpha" type="matrix" values="0 0 0 0 0 0 0 0 0 0 0 0 0 0 0 0 0 0 127 0" result="hardAlpha"/>
<feOffset dy="4"/>
<feGaussianBlur stdDeviation="2"/>
<feComposite in2="hardAlpha" operator="out"/>
<feColorMatrix type="matrix" values="0 0 0 0 0 0 0 0 0 0 0 0 0 0 0 0 0 0 0.25 0"/>
<feBlend mode="normal" in2="BackgroundImageFix" result="effect1_dropShadow_9_74"/>
<feBlend mode="normal" in="SourceGraphic" in2="effect1_dropShadow_9_74" result="shape"/>
</filter>
</defs>
</svg>
