<svg width="23" height="26" viewBox="0 0 23 26" fill="none" xmlns="http://www.w3.org/2000/svg">
<path d="M7.51562 14.625H5.48438C5.14922 14.625 4.875 14.3508 4.875 14.0156V11.9844C4.875 11.6492 5.14922 11.375 5.48438 11.375H7.51562C7.85078 11.375 8.125 11.6492 8.125 11.9844V14.0156C8.125 14.3508 7.85078 14.625 7.51562 14.625ZM13 14.0156V11.9844C13 11.6492 12.7258 11.375 12.3906 11.375H10.3594C10.0242 11.375 9.75 11.6492 9.75 11.9844V14.0156C9.75 14.3508 10.0242 14.625 10.3594 14.625H12.3906C12.7258 14.625 13 14.3508 13 14.0156ZM17.875 14.0156V11.9844C17.875 11.6492 17.6008 11.375 17.2656 11.375H15.2344C14.8992 11.375 14.625 11.6492 14.625 11.9844V14.0156C14.625 14.3508 14.8992 14.625 15.2344 14.625H17.2656C17.6008 14.625 17.875 14.3508 17.875 14.0156ZM13 18.8906V16.8594C13 16.5242 12.7258 16.25 12.3906 16.25H10.3594C10.0242 16.25 9.75 16.5242 9.75 16.8594V18.8906C9.75 19.2258 10.0242 19.5 10.3594 19.5H12.3906C12.7258 19.5 13 19.2258 13 18.8906ZM8.125 18.8906V16.8594C8.125 16.5242 7.85078 16.25 7.51562 16.25H5.48438C5.14922 16.25 4.875 16.5242 4.875 16.8594V18.8906C4.875 19.2258 5.14922 19.5 5.48438 19.5H7.51562C7.85078 19.5 8.125 19.2258 8.125 18.8906ZM17.875 18.8906V16.8594C17.875 16.5242 17.6008 16.25 17.2656 16.25H15.2344C14.8992 16.25 14.625 16.5242 14.625 16.8594V18.8906C14.625 19.2258 14.8992 19.5 15.2344 19.5H17.2656C17.6008 19.5 17.875 19.2258 17.875 18.8906ZM22.75 5.6875V23.5625C22.75 24.9082 21.6582 26 20.3125 26H2.4375C1.0918 26 0 24.9082 0 23.5625V5.6875C0 4.3418 1.0918 3.25 2.4375 3.25H4.875V0.609375C4.875 0.274219 5.14922 0 5.48438 0H7.51562C7.85078 0 8.125 0.274219 8.125 0.609375V3.25H14.625V0.609375C14.625 0.274219 14.8992 0 15.2344 0H17.2656C17.6008 0 17.875 0.274219 17.875 0.609375V3.25H20.3125C21.6582 3.25 22.75 4.3418 22.75 5.6875ZM20.3125 23.2578V8.125H2.4375V23.2578C2.4375 23.4254 2.57461 23.5625 2.74219 23.5625H20.0078C20.1754 23.5625 20.3125 23.4254 20.3125 23.2578Z" fill="black"/>
</svg>
